<svg xmlns="http://www.w3.org/2000/svg" width="50.522" height="50.522" viewBox="0 0 50.522 50.522"><defs><style>.a{fill:#fff;}</style></defs><path class="a" d="M239.971,84.92H208.977a9.774,9.774,0,0,0-9.764,9.761v31a9.777,9.777,0,0,0,9.764,9.764h30.994a9.777,9.777,0,0,0,9.764-9.764v-31A9.774,9.774,0,0,0,239.971,84.92Zm2.8,5.822,1.117,0V99.3l-8.537.027-.03-8.564Zm-25.508,14.252a8.878,8.878,0,1,1-1.681,5.186A8.881,8.881,0,0,1,217.265,104.995Zm27.548,20.684a4.844,4.844,0,0,1-4.842,4.839H208.977a4.844,4.844,0,0,1-4.842-4.839V104.995h7.542a13.813,13.813,0,1,0,25.594,0h7.542Z" transform="translate(-199.213 -84.92)"/></svg>