<svg xmlns="http://www.w3.org/2000/svg" width="56.682" height="46.063" viewBox="0 0 56.682 46.063"><defs><style>.a{fill:#fff;}</style></defs><path class="a" d="M173.751,91.954a23.19,23.19,0,0,1-6.677,1.83,11.63,11.63,0,0,0,5.11-6.431,23.233,23.233,0,0,1-7.386,2.818,11.632,11.632,0,0,0-20.112,7.958,11.4,11.4,0,0,0,.3,2.648,33,33,0,0,1-23.971-12.154,11.649,11.649,0,0,0,3.6,15.53,11.626,11.626,0,0,1-5.27-1.451v.143a11.631,11.631,0,0,0,9.332,11.4,11.379,11.379,0,0,1-3.067.409,11.513,11.513,0,0,1-2.186-.206,11.625,11.625,0,0,0,10.863,8.071,23.334,23.334,0,0,1-14.442,4.98,23.863,23.863,0,0,1-2.775-.16,32.961,32.961,0,0,0,17.826,5.22c21.393,0,33.087-17.716,33.087-33.084,0-.506-.01-1.011-.033-1.507a23.537,23.537,0,0,0,5.8-6.019" transform="translate(-117.069 -86.501)"/></svg>